HIERARCHY
ROOT hip
{
	OFFSET 0.000000 0.000000 0.000000
	CHANNELS 6 Xposition Yposition Zposition Xrotation Zrotation Yrotation 
	JOINT abdomen
	{
		OFFSET 0.000000 3.422050 0.000000
		CHANNELS 3 Xrotation Zrotation Yrotation 
		JOINT chest
		{
			OFFSET 0.000000 8.486693 -0.684411
			CHANNELS 3 Xrotation Zrotation Yrotation 
			JOINT neck
			{
				OFFSET 0.000000 10.266162 -0.273764
				CHANNELS 3 Xrotation Zrotation Yrotation 
				JOINT head
				{
					OFFSET 0.000000 3.148285 0.000000
					CHANNELS 3 Xrotation Zrotation Yrotation 
					End Site
					{
						OFFSET 0.000000 3.148289 0.000000
					}
				}
			}
			JOINT lCollar
			{
				OFFSET 3.422053 6.707223 -0.821293
				CHANNELS 3 Yrotation Zrotation Xrotation 
				JOINT lShldr
				{
					OFFSET 3.285171 0.000000 0.000000
					CHANNELS 3 Zrotation Yrotation Xrotation 
					JOINT lForeArm
					{
						OFFSET 10.129278 0.000000 0.000000
						CHANNELS 3 Yrotation Zrotation Xrotation 
						JOINT lHand
						{
							OFFSET 8.486692 0.000000 0.000000
							CHANNELS 3 Zrotation Yrotation Xrotation 
							End Site
							{
								OFFSET 4.106464 0.000000 0.000000
							}
						}
					}
				}
			}
			JOINT rCollar
			{
				OFFSET -3.558935 6.707223 -0.821293
				CHANNELS 3 Yrotation Zrotation Xrotation 
				JOINT rShldr
				{
					OFFSET -3.148289 0.000000 0.000000
					CHANNELS 3 Zrotation Yrotation Xrotation 
					JOINT rForeArm
					{
						OFFSET -10.266159 0.000000 0.000000
						CHANNELS 3 Yrotation Zrotation Xrotation 
						JOINT rHand
						{
							OFFSET -8.349810 0.000000 0.000000
							CHANNELS 3 Zrotation Yrotation Xrotation 
							End Site
							{
								OFFSET -4.106464 0.000000 0.000000
							}
						}
					}
				}
			}
		}
	}
	JOINT lThigh
	{
		OFFSET 5.338403 -1.642589 1.368821
		CHANNELS 3 Xrotation Zrotation Yrotation 
		JOINT lShin
		{
			OFFSET -2.053232 -20.121670 0.000000
			CHANNELS 3 Xrotation Zrotation Yrotation 
			JOINT lFoot
			{
				OFFSET 0.000000 -19.300380 -1.231939
				CHANNELS 3 Xrotation Yrotation Zrotation 
				End Site
				{
					OFFSET 0.000000 -2.463878 4.653993
				}
			}
		}
	}
	JOINT rThigh
	{
		OFFSET -5.338403 -1.642589 1.368821
		CHANNELS 3 Xrotation Zrotation Yrotation 
		JOINT rShin
		{
			OFFSET 2.053232 -20.121670 0.000000
			CHANNELS 3 Xrotation Zrotation Yrotation 
			JOINT rFoot
			{
				OFFSET 0.000000 -19.300380 -1.231939
				CHANNELS 3 Xrotation Yrotation Zrotation 
				End Site
				{
					OFFSET 0.000000 -2.463878 4.653993
				}
			}
		}
	}
}
MOTION
Frames: 16
Frame Time: 0.142781
0.000000 43.528500 0.000000 0.000000 0.000000 0.000000 0.000000 0.000000 0.000000 0.000000 0.000000 0.000000 0.000000 0.000000 0.000000 0.000000 0.000000 0.000000 0.000000 0.000000 0.000000 0.000000 0.000000 0.000000 0.000000 0.000000 0.000000 0.000000 0.000000 0.000000 0.000000 0.000000 0.000000 0.000000 0.000000 0.000000 0.000000 0.000000 0.000000 0.000000 0.000000 0.000000 0.000000 0.000000 0.000000 0.000000 0.000000 0.000000 0.000000 0.000000 0.000000 0.000000 0.000000 0.000000 0.000000 0.000000 0.000000 0.000000 0.000000 0.000000 
-10.041496 6.915924 2.448048 -90.001755 -0.005246 -90.001755 2.888457 2.539534 1.902883 -0.513274 -2.184726 -0.138870 30.748724 4.878304 27.081947 0.000000 0.000000 0.000000 -33.897179 4.136728 -1.005149 -83.100349 -21.602350 27.694618 -78.871819 13.016666 -7.122196 0.998433 0.000000 0.000000 51.280548 39.494846 -23.706907 48.715595 -11.378862 3.980285 79.438011 -54.763363 35.662071 6.997686 -0.002259 -21.200531 -44.462135 -10.772191 7.889499 48.214943 -1.961502 -0.090370 40.309349 3.775821 8.104119 -28.126991 -5.470768 -0.164252 40.359146 2.328224 0.138424 42.078896 -3.499094 -7.657232 
-10.041496 6.915924 2.448048 -90.001755 -0.005246 -90.001755 2.888457 2.539534 1.902883 -0.513274 -2.184726 -0.138870 30.473312 4.856061 27.077797 0.000000 0.000000 0.000000 -33.897179 4.136728 -1.005149 -83.100349 -21.602350 27.694618 -80.315582 12.711739 -7.019315 0.998433 0.000000 0.000000 51.280552 39.494850 -23.706911 48.715595 -11.378863 3.980286 79.438019 -54.763363 35.662075 6.997686 -0.002259 -21.200533 -44.462135 -10.772191 7.889499 48.214943 -1.961502 -0.090370 40.309349 3.775822 8.104120 -28.126991 -5.470768 -0.164252 40.359146 2.328224 0.138424 42.078896 -3.499094 -7.657232 
-10.041496 6.915924 2.448048 -90.001755 -0.005246 -90.001755 2.888457 2.539534 1.902883 -0.513274 -2.184726 -0.138870 30.197834 4.833793 27.073736 0.000000 0.000000 0.000000 -33.897179 4.136728 -1.005149 -83.100349 -21.602350 27.694618 -81.762581 12.403205 -6.924110 0.998433 0.000000 0.000000 51.280548 39.494846 -23.706907 48.715595 -11.378862 3.980285 79.438011 -54.763363 35.662071 6.997686 -0.002259 -21.200531 -44.462135 -10.772191 7.889499 48.214943 -1.961502 -0.090370 40.309349 3.775821 8.104119 -28.126991 -5.470768 -0.164252 40.359146 2.328224 0.138424 42.078896 -3.499094 -7.657232 
-10.041496 6.915924 2.448048 -90.001755 -0.005246 -90.001755 2.888457 2.539534 1.902883 -0.513274 -2.184726 -0.138870 29.922321 4.811502 27.069788 0.000000 0.000000 0.000000 -33.897179 4.136728 -1.005149 -83.100349 -21.602350 27.694618 -83.212425 12.091331 -6.836720 0.998433 0.000000 0.000000 51.280552 39.494854 -23.706911 48.715595 -11.378863 3.980286 79.438019 -54.763363 35.662075 6.997686 -0.002259 -21.200533 -44.462135 -10.772191 7.889499 48.214943 -1.961502 -0.090370 40.309349 3.775822 8.104120 -28.126995 -5.470768 -0.164252 40.359146 2.328224 0.138424 42.078896 -3.499095 -7.657233 
-10.041496 6.915924 2.448048 -90.001755 -0.005246 -90.001755 2.888457 2.539535 1.902883 -0.513274 -2.184726 -0.138870 29.646757 4.789187 27.065941 0.000000 0.000000 0.000000 -33.897179 4.136728 -1.005149 -83.100349 -21.602352 27.694618 -84.664688 11.776397 -6.757283 0.998433 0.000000 0.000000 51.280548 39.494846 -23.706907 48.715595 -11.378862 3.980286 79.438011 -54.763363 35.662071 6.997687 -0.002259 -21.200533 -44.462135 -10.772191 7.889499 48.214947 -1.961502 -0.090370 40.309353 3.775822 8.104119 -28.126991 -5.470768 -0.164252 40.359146 2.328224 0.138424 42.078896 -3.499095 -7.657232 
-10.041496 6.915924 2.448048 -90.001755 -0.005246 -90.001755 2.888457 2.539534 1.902883 -0.513274 -2.184726 -0.138870 29.371166 4.766852 27.062212 0.000000 0.000000 0.000000 -33.897179 4.136728 -1.005149 -83.100349 -21.602354 27.694620 -86.118988 11.458688 -6.685914 0.998433 0.000000 0.000000 51.280552 39.494854 -23.706911 48.715595 -11.378863 3.980286 79.438019 -54.763363 35.662075 6.997687 -0.002259 -21.200535 -44.462139 -10.772193 7.889500 48.214947 -1.961502 -0.090370 40.309349 3.775822 8.104120 -28.126991 -5.470768 -0.164252 40.359146 2.328224 0.138424 42.078896 -3.499094 -7.657232 
-10.041496 6.915924 2.448048 -90.001755 -0.005244 -90.001755 2.888457 2.539535 1.902883 -0.513274 -2.184726 -0.138870 29.095533 4.744494 27.058586 0.000000 0.000000 0.000000 -33.897182 4.136728 -1.005149 -83.100349 -21.602356 27.694620 -87.574951 11.138504 -6.622717 0.998433 0.000000 0.000000 51.280548 39.494846 -23.706907 48.715599 -11.378862 3.980285 79.438011 -54.763371 35.662071 6.997687 -0.002259 -21.200531 -44.462143 -10.772192 7.889500 48.214943 -1.961502 -0.090370 40.309357 3.775822 8.104120 -28.126993 -5.470768 -0.164252 40.359146 2.328224 0.138424 42.078896 -3.499094 -7.657232 
-10.041496 6.915924 2.448048 -90.001747 -0.005249 -90.001747 2.888457 2.539534 1.902883 -0.513274 -2.184726 -0.138870 28.819868 4.722115 27.055067 0.000000 0.000000 0.000000 -33.897175 4.136728 -1.005149 -83.100342 -21.602350 27.694616 -89.032120 10.816136 -6.567779 0.998433 0.000000 0.000000 51.280548 39.494846 -23.706907 48.715591 -11.378862 3.980285 79.438011 -54.763359 35.662075 6.997686 -0.002260 -21.200531 -44.462135 -10.772191 7.889499 48.214943 -1.961502 -0.090370 40.309345 3.775821 8.104119 -28.126991 -5.470767 -0.164252 40.359142 2.328224 0.138424 42.078896 -3.499094 -7.657232 
-10.041496 6.915924 2.448048 -90.001755 -0.005247 -90.001755 2.888457 2.539534 1.902883 -0.513274 -2.184726 -0.138870 28.544170 4.699717 27.051655 0.000000 0.000000 0.000000 -33.897175 4.136728 -1.005149 -83.100349 -21.602345 27.694614 -90.490166 10.491909 -6.521179 0.998433 0.000000 0.000000 51.280548 39.494846 -23.706907 48.715591 -11.378861 3.980284 79.438004 -54.763363 35.662071 6.997686 -0.002259 -21.200531 -44.462135 -10.772191 7.889499 48.214939 -1.961502 -0.090370 40.309349 3.775821 8.104119 -28.126991 -5.470767 -0.164252 40.359146 2.328224 0.138424 42.078896 -3.499094 -7.657232 
-10.041496 6.915924 2.448048 -90.001755 -0.005246 -90.001755 2.888457 2.539534 1.902883 -0.513274 -2.184726 -0.138870 28.268450 4.677299 27.048355 0.000000 0.000000 0.000000 -33.897179 4.136728 -1.005149 -83.100349 -21.602346 27.694614 -91.948647 10.166122 -6.482969 0.998433 0.000000 0.000000 51.280548 39.494846 -23.706907 48.715595 -11.378862 3.980285 79.438011 -54.763363 35.662071 6.997686 -0.002259 -21.200531 -44.462135 -10.772190 7.889499 48.214939 -1.961502 -0.090370 40.309349 3.775821 8.104119 -28.126991 -5.470767 -0.164252 40.359146 2.328224 0.138424 42.078888 -3.499094 -7.657231 
-10.041496 6.915924 2.448048 -90.001755 -0.005246 -90.001755 2.888457 2.539534 1.902883 -0.513274 -2.184726 -0.138870 27.992699 4.654863 27.045155 0.000000 0.000000 0.000000 -33.897179 4.136728 -1.005149 -83.100349 -21.602350 27.694618 -93.407166 9.839099 -6.453198 0.998433 0.000000 0.000000 51.280548 39.494846 -23.706907 48.715595 -11.378862 3.980285 79.438011 -54.763363 35.662071 6.997686 -0.002259 -21.200531 -44.462135 -10.772191 7.889499 48.214943 -1.961502 -0.090370 40.309349 3.775821 8.104119 -28.126989 -5.470768 -0.164252 40.359146 2.328224 0.138424 42.078896 -3.499094 -7.657232 
-10.041496 6.915924 2.448048 -90.001755 -0.005246 -90.001755 2.888457 2.539534 1.902883 -0.513274 -2.184726 -0.138870 27.716934 4.632411 27.042072 0.000000 0.000000 0.000000 -33.897175 4.136728 -1.005149 -83.100349 -21.602350 27.694618 -94.865318 9.511154 -6.431888 0.998433 0.000000 0.000000 51.280548 39.494846 -23.706907 48.715595 -11.378862 3.980285 79.438011 -54.763363 35.662071 6.997686 -0.002259 -21.200531 -44.462135 -10.772191 7.889499 48.214943 -1.961502 -0.090370 40.309349 3.775821 8.104119 -28.126989 -5.470768 -0.164252 40.359146 2.328224 0.138424 42.078896 -3.499094 -7.657232 
-10.041496 6.915924 2.448048 -90.001755 -0.005246 -90.001755 2.888457 2.539534 1.902883 -0.513274 -2.184726 -0.138870 27.441147 4.609941 27.039091 0.000000 0.000000 0.000000 -33.897179 4.136728 -1.005149 -83.100349 -21.602350 27.694618 -96.322716 9.182615 -6.419055 0.998433 0.000000 0.000000 51.280548 39.494846 -23.706907 48.715591 -11.378862 3.980285 79.438011 -54.763363 35.662071 6.997686 -0.002259 -21.200531 -44.462135 -10.772191 7.889499 48.214943 -1.961502 -0.090370 40.309349 3.775821 8.104119 -28.126991 -5.470768 -0.164252 40.359146 2.328224 0.138424 42.078892 -3.499094 -7.657232 
-10.041496 6.915924 2.448048 -90.001755 -0.005246 -90.001755 2.888457 2.539534 1.902883 -0.513274 -2.184726 -0.138870 27.165354 4.587453 27.036222 0.000000 0.000000 0.000000 -33.897179 4.136728 -1.005149 -83.100349 -21.602350 27.694618 -97.778961 8.853806 -6.414696 0.998433 0.000000 0.000000 51.280548 39.494846 -23.706907 48.715595 -11.378862 3.980285 79.438011 -54.763363 35.662071 6.997686 -0.002259 -21.200531 -44.462135 -10.772191 7.889499 48.214943 -1.961502 -0.090370 40.309349 3.775821 8.104119 -28.126991 -5.470768 -0.164252 40.359146 2.328224 0.138424 42.078896 -3.499094 -7.657232 
-10.041496 6.915924 2.448048 -90.001755 -0.005244 -90.001755 2.888457 2.539534 1.902883 -0.513274 -2.184726 -0.138870 26.889538 4.564952 27.033459 0.000000 0.000000 0.000000 -33.897179 4.136728 -1.005150 -83.100357 -21.602350 27.694620 -99.233658 8.525048 -6.418788 0.998433 0.000000 0.000000 51.280548 39.494846 -23.706907 48.715599 -11.378862 3.980285 79.438011 -54.763371 35.662071 6.997686 -0.002259 -21.200531 -44.462139 -10.772192 7.889499 48.214943 -1.961502 -0.090370 40.309349 3.775821 8.104119 -28.126995 -5.470768 -0.164252 40.359146 2.328224 0.138424 42.078896 -3.499094 -7.657232 
